<svg xmlns="http://www.w3.org/2000/svg" width="70" height="50" viewBox="0 0 70 50"><rect width="100%" height="100%" fill="#DDDDDD"/><path fill="#999999" d="M13.46 20.3h6.49v.7q0 .31-.07.5-.06.19-.13.32l-3.56 7.33q-.11.23-.31.39t-.54.16h-1.16l3.63-7.18q.12-.22.24-.41.12-.18.27-.35h-4.49q-.15 0-.26-.11t-.11-.26zM27.61 25q0 1.23-.27 2.14-.26.9-.73 1.49-.46.6-1.09.88-.64.29-1.37.29-.74 0-1.36-.29-.63-.28-1.09-.88-.46-.59-.72-1.49-.26-.91-.26-2.14t.26-2.14q.26-.9.72-1.49t1.09-.88q.62-.29 1.36-.29.73 0 1.37.29.63.29 1.09.88.47.59.73 1.49.27.91.27 2.14m-1.66 0q0-1.02-.15-1.69t-.4-1.07q-.25-.39-.58-.55-.32-.16-.67-.16t-.67.16-.57.55q-.24.4-.39 1.07T22.37 25t.15 1.69.39 1.07q.25.39.57.55t.67.16.67-.16q.33-.16.58-.55.25-.4.4-1.07t.15-1.69m11.98 2.55-.85.84-2.21-2.21-2.22 2.22-.85-.84 2.22-2.23-2.12-2.12.85-.84 2.12 2.12 2.1-2.11.86.85-2.11 2.11zm6.83-5.79-.33 1.95q.31-.06.6-.09.28-.03.55-.03.74 0 1.31.22.56.22.94.61.39.39.58.92.2.52.2 1.12 0 .75-.27 1.37-.26.62-.73 1.05-.46.44-1.11.68-.64.24-1.39.24-.44 0-.84-.09-.39-.09-.74-.24t-.65-.35q-.29-.2-.53-.42l.5-.68q.15-.22.41-.22.16 0 .33.1l.39.23q.21.12.51.22.3.11.71.11.44 0 .78-.14.34-.15.56-.4.23-.26.34-.62.12-.35.12-.77 0-.76-.45-1.19-.44-.44-1.32-.44-.67 0-1.37.25l-1-.29.78-4.56h4.64v.68q0 .35-.21.56-.22.22-.73.22zM56.54 25q0 1.23-.26 2.14-.26.9-.73 1.49-.46.6-1.1.88-.63.29-1.36.29-.74 0-1.37-.29-.62-.28-1.08-.88-.47-.59-.73-1.49-.26-.91-.26-2.14t.26-2.14q.26-.9.73-1.49.46-.59 1.08-.88.63-.29 1.37-.29.73 0 1.36.29.64.29 1.1.88.47.59.73 1.49.26.91.26 2.14m-1.65 0q0-1.02-.15-1.69t-.4-1.07q-.25-.39-.58-.55-.32-.16-.67-.16t-.67.16-.57.55q-.25.4-.39 1.07-.15.67-.15 1.69t.15 1.69q.14.67.39 1.07.25.39.57.55t.67.16.67-.16q.33-.16.58-.55.25-.4.4-1.07t.15-1.69"/></svg>