<svg xmlns="http://www.w3.org/2000/svg" width="40" height="20" viewBox="0 0 40 20"><rect width="100%" height="100%" fill="#DDDDDD"/><path fill="#999999" d="M7.625 10.715h1.76v-1.89q0-.27.04-.59zm2.62 0h.73v.57q0 .08-.05.14t-.15.06h-.53v1.41h-.86v-1.41h-2.44q-.1 0-.17-.06-.08-.07-.1-.16l-.1-.5 2.74-3.66h.93zm5.38-.71q0 .75-.17 1.31-.16.56-.44.92-.29.37-.68.55-.39.17-.84.17t-.84-.17q-.39-.18-.67-.55-.28-.36-.44-.92t-.16-1.31q0-.76.16-1.32.16-.55.44-.92.28-.36.67-.54t.84-.18.84.18.68.54q.28.37.44.92.17.56.17 1.32m-1.02 0q0-.63-.1-1.04-.09-.41-.24-.66-.16-.24-.36-.34t-.41-.1-.41.1-.35.34q-.15.25-.24.66t-.09 1.04.09 1.04.24.65q.15.25.35.35.2.09.41.09t.41-.09q.2-.1.36-.35.15-.24.24-.65.1-.41.1-1.04m7.37 1.57-.53.51-1.35-1.35-1.37 1.36-.52-.52 1.36-1.37-1.3-1.3.52-.52 1.3 1.3 1.3-1.29.53.52-1.3 1.3zm4.81.4h1.49q.16 0 .25.09.1.09.1.24v.59h-3.97v-.33q0-.1.04-.21t.13-.2l1.76-1.76q.22-.22.39-.42.18-.21.29-.41.12-.2.18-.4.06-.21.06-.44 0-.21-.06-.36-.06-.16-.17-.27t-.26-.16q-.15-.06-.35-.06-.17 0-.32.05t-.27.14q-.11.09-.19.21t-.12.27q-.07.18-.18.24t-.31.03l-.52-.09q.06-.42.23-.73.17-.32.43-.53t.59-.31q.34-.11.72-.11.4 0 .73.12t.57.33q.24.22.37.52.13.31.13.68 0 .32-.09.59-.1.27-.26.52-.15.25-.37.48-.21.23-.44.47l-1.3 1.34q.18-.06.37-.09t.35-.03m6.64-1.97q0 .75-.16 1.31t-.45.92q-.28.37-.67.55-.39.17-.84.17-.46 0-.84-.17-.39-.18-.67-.55-.29-.36-.45-.92t-.16-1.31q0-.76.16-1.32.16-.55.45-.92.28-.36.67-.54.38-.18.84-.18.45 0 .84.18t.67.54q.29.37.45.92.16.56.16 1.32m-1.02 0q0-.63-.09-1.04t-.24-.66q-.16-.24-.36-.34t-.41-.1q-.22 0-.41.1-.2.1-.35.34-.16.25-.25.66t-.09 1.04.09 1.04.25.65q.15.25.35.35.19.09.41.09.21 0 .41-.09.2-.1.36-.35.15-.24.24-.65t.09-1.04"/></svg>